<?xml version="1.0" encoding="UTF-8"?>
<svg id="Layer_1" data-name="Layer 1" xmlns="http://www.w3.org/2000/svg" xmlns:xlink="http://www.w3.org/1999/xlink" viewBox="0 0 1080 1080">
  <defs>
    <style>
      .cls-1 {
        fill: url(#linear-gradient);
      }

      .cls-2 {
        fill: #2d133a;
      }
    </style>
    <linearGradient id="linear-gradient" x1="446.28" y1="540" x2="633.72" y2="540" gradientUnits="userSpaceOnUse">
      <stop offset="0" stop-color="#ba9ffe"/>
      <stop offset=".18" stop-color="#be9df8"/>
      <stop offset=".41" stop-color="#ca9ae7"/>
      <stop offset=".67" stop-color="#dd95cc"/>
      <stop offset=".95" stop-color="#f88ea6"/>
      <stop offset="1" stop-color="#fe8d9f"/>
    </linearGradient>
  </defs>
  <rect class="cls-2" x="389.65" y="389.65" width="300.71" height="300.71" rx="70" ry="70"/>
  <path class="cls-1" d="m633.72,499.64v43.57c0,31.76-16.06,61.34-42.69,78.63l-49.31,32.01c-1.05.68-2.39.68-3.44,0l-49.31-32.01-.04-.03c-2.01-1.3-2.09-4.21-.16-5.62,5.36-3.92,10.69-7.87,16.06-11.8,24.8-18.17,52.86-34.39,73.05-57.98,7.26-8.47,10.58-18.44,5.86-28.89-3.7-8.18-11.69-12.79-20.64-11.56-4.66.64-9.04,2.67-12.81,5.42-2.89,2.11-4.84,4.2-5.91,5.38-.86.95-1.62,1.88-2.29,2.77-1.32,1.75-3.95,1.62-5.15-.21-3.35-5.07-9.27-11.8-18.23-13.64-2.16-.44-3.66-.4-4.13-.42-12.59-.17-24.47,9.92-23.99,22.98.4,11.36,7.81,21.23,13.16,30.76,5.89,10.43-20.42,34.55-30.35,43.11-2.02,1.74-5.1,1.47-6.76-.62-12.99-16.35-20.34-36.83-20.34-58.31v-43.57c0-8.57,4.34-16.55,11.52-21.23l80.47-52.26c1.05-.68,2.39-.68,3.44,0l80.47,52.26c7.19,4.67,11.52,12.66,11.52,21.23Z"/>
</svg>